<svg width="69" height="25" viewBox="0 0 69 25" fill="none" xmlns="http://www.w3.org/2000/svg">
<path d="M34.6443 22.3115C40.1151 22.3115 44.55 17.8765 44.55 12.4057C44.55 6.93496 40.1151 2.5 34.6443 2.5C29.1735 2.5 24.7385 6.93496 24.7385 12.4057C24.7385 17.8765 29.1735 22.3115 34.6443 22.3115Z" fill="black"/>
<path d="M56.7881 22.3115C62.2589 22.3115 66.6938 17.8765 66.6938 12.4057C66.6938 6.93496 62.2589 2.5 56.7881 2.5C51.3173 2.5 46.8823 6.93496 46.8823 12.4057C46.8823 17.8765 51.3173 22.3115 56.7881 22.3115Z" fill="black"/>
<path d="M22.406 2.5H2.604V22.302H22.406V2.5Z" fill="black"/>
</svg>
